<?xml version="1.0" encoding="UTF-8"?>
<!DOCTYPE svg PUBLIC "-//W3C//DTD SVG 1.1//EN" "http://www.w3.org/Graphics/SVG/1.1/DTD/svg11.dtd">
<svg version="1.1" xmlns="http://www.w3.org/2000/svg" xmlns:xlink="http://www.w3.org/1999/xlink" x="0" y="0" width="477.595" height="496.053" viewBox="0, 0, 477.595, 496.053">
  <g id="Layer_1">
    <path d="M102.071,136.704 C106.32,131.141 119.267,119.473 117.666,112.915 C115.463,103.897 118.173,118.022 114.437,109.137 C112.721,105.059 103.027,91.065 95.422,74.914 C94.466,63.509 97.407,45.289 98.937,41.789 C102.036,34.699 105.887,21.303 105.657,13.73 C105.486,8.091 99.455,2.97 94.196,6.125 C92.058,7.409 89.335,11.143 87.915,20.879 C86.562,30.157 82.229,33.983 76.431,37.114 C65.171,26.736 63.64,27.129 54.558,18.856 C44.201,9.425 33.42,-1.879 28.894,1.742 C19.369,9.355 46.773,26.182 49.799,35.963 C35.415,25.266 15.943,5.684 8.937,12.19 C1.932,18.697 34.59,35.011 40.306,43.737 C31.916,42.875 5.265,24.307 1.965,30.893 C-1.211,37.229 4.426,39.155 12.104,44.194 C18.793,48.584 29.483,53.112 32.678,55.508 C28.433,55.081 8.832,48.35 6.252,52.097 C4.881,54.087 7.665,60.038 12.734,61.934 C18.587,64.119 27.824,66.598 30.474,68.911 C36.493,74.171 50.959,86.363 57.062,87.992 C63.906,89.811 65.942,89.966 74.063,89.998 C80.816,96.898 92.56,124.494 102.071,136.704" fill="#F3B9A2" id="path147485"/>
    <path d="M102.071,136.704 C106.32,131.141 119.267,119.473 117.666,112.915 C115.463,103.897 118.173,118.022 114.437,109.137 C112.721,105.059 103.027,91.065 95.422,74.914 C94.466,63.509 97.407,45.289 98.937,41.789 C102.036,34.699 105.887,21.303 105.657,13.73 C105.486,8.091 99.455,2.97 94.196,6.125 C92.058,7.409 89.335,11.143 87.915,20.879 C86.562,30.157 82.229,33.983 76.431,37.114 C65.171,26.736 63.64,27.129 54.558,18.856 C44.201,9.425 33.42,-1.879 28.894,1.742 C19.369,9.355 46.773,26.182 49.799,35.963 C35.415,25.266 15.943,5.684 8.937,12.19 C1.932,18.697 34.59,35.011 40.306,43.737 C31.916,42.875 5.265,24.307 1.965,30.893 C-1.211,37.229 4.426,39.155 12.104,44.194 C18.793,48.584 29.483,53.112 32.678,55.508 C28.433,55.081 8.832,48.35 6.252,52.097 C4.881,54.087 7.665,60.038 12.734,61.934 C18.587,64.119 27.824,66.598 30.474,68.911 C36.493,74.171 50.959,86.363 57.062,87.992 C63.906,89.811 65.942,89.966 74.063,89.998 C80.816,96.898 92.56,124.494 102.071,136.704 z" fill-opacity="0" stroke="#1A1919" stroke-width="2.126" stroke-linecap="round" stroke-linejoin="round" id="path147487"/>
    <path d="M68.31,39.322 C64.308,44.302 63.418,59.637 65.214,65.773" fill="#F3B9A2" id="path147489"/>
    <path d="M68.31,39.322 C64.308,44.302 63.418,59.637 65.214,65.773" fill-opacity="0" stroke="#1A1919" stroke-width="2.126" stroke-linecap="round" stroke-linejoin="round" id="path147491"/>
    <path d="M231.221,217.615 C216.08,215.455 210.793,223.053 196.164,217.475 C189.165,214.81 187.824,211.321 183.816,205.119 C174.613,190.864 165.704,176.6 156.247,162.35 C150.151,153.167 117.277,96.781 112.53,82.522 C103.032,94.859 83.064,108.181 71.659,111.034 C88.777,130.034 114.437,177.561 122.035,191.818 C125.453,198.231 139.143,221.282 150.547,254.537 C153.827,264.111 161.949,314.895 162.906,327.725 C163.764,339.2 167.08,380.033 165.744,405.678 C169.764,406.128 227.748,402.51 235.121,402.828 C259.178,403.869 303.17,417.444 327.322,414.209 C330.097,391.364 317.992,397.072 314.963,363.847 C314.012,353.38 316.791,327.751 316.853,310.26 C324.052,327.859 336.722,344.354 336.252,361.461 C357.162,385.227 377.667,354.936 376.747,349.593 C374.652,337.461 350.717,289.327 341.652,271.86 C335.667,260.34 324.037,245.478 314.058,240.258 C302.01,233.961 291.144,230.883 279.259,229.461 C265.75,227.839 260.626,228.865 248.649,225.257 C242.828,223.503 237.276,218.485 231.221,217.615" fill="#7A8BAD" id="path147493"/>
    <path d="M231.221,217.615 C216.08,215.455 210.793,223.053 196.164,217.475 C189.165,214.81 187.824,211.321 183.816,205.119 C174.613,190.864 165.704,176.6 156.247,162.35 C150.151,153.167 117.277,96.781 112.53,82.522 C103.032,94.859 83.064,108.181 71.659,111.034 C88.777,130.034 114.437,177.561 122.035,191.818 C125.453,198.231 139.143,221.282 150.547,254.537 C153.827,264.111 161.949,314.895 162.906,327.725 C163.764,339.2 167.08,380.033 165.744,405.678 C169.764,406.128 227.748,402.51 235.121,402.828 C259.178,403.869 303.17,417.444 327.322,414.209 C330.097,391.364 317.992,397.072 314.963,363.847 C314.012,353.38 316.791,327.751 316.853,310.26 C324.052,327.859 336.722,344.354 336.252,361.461 C357.162,385.227 377.667,354.936 376.747,349.593 C374.652,337.461 350.717,289.327 341.652,271.86 C335.667,260.34 324.037,245.478 314.058,240.258 C302.01,233.961 291.144,230.883 279.259,229.461 C265.75,227.839 260.626,228.865 248.649,225.257 C242.828,223.503 237.276,218.485 231.221,217.615 z" fill-opacity="0" stroke="#1A1919" stroke-width="2.126" stroke-linecap="round" stroke-linejoin="round" id="path147495"/>
    <path d="M475.907,480.75 L249.39,490.245 L30.17,480.3 L67.431,368.914 L425.792,369.819 L475.907,480.75" fill="#F4BE8A" id="path147497"/>
    <path d="M475.907,480.75 L249.39,490.245 L30.17,480.3 L67.431,368.914 L425.792,369.819 z" fill-opacity="0" stroke="#1A1919" stroke-width="2.126" stroke-linecap="round" stroke-linejoin="round" id="path147499"/>
    <path d="M380.547,382.847 C385.457,377.201 379.052,369.919 371.997,363.846 C356.127,350.168 332.562,377.372 324.122,387.865 C317.19,396.486 316.302,408.265 327.322,410.403 C344.507,413.736 368.992,396.129 380.547,382.847" fill="#DAA275" id="path147501"/>
    <path d="M279.798,242.192 C277.703,232.025 268.862,223.841 259.838,220.327 C248.286,215.829 231.648,210.505 219.924,213.669 C202.847,218.283 190.355,232.508 193.651,250.26 C198.043,273.912 220.867,282.521 239.652,281.86 C259.707,281.152 285.385,269.351 279.798,242.192" fill="#7A8BAD" id="path147503"/>
    <path d="M279.798,242.192 C277.703,232.025 268.862,223.841 259.838,220.327 C248.286,215.829 231.648,210.505 219.924,213.669 C202.847,218.283 190.355,232.508 193.651,250.26 C198.043,273.912 220.867,282.521 239.652,281.86 C259.707,281.152 285.385,269.351 279.798,242.192 z" fill-opacity="0" stroke="#1A1919" stroke-width="2.126" stroke-linecap="round" stroke-linejoin="round" id="path147505"/>
    <path d="M267.452,235.536 C261.057,219.992 260.863,216.978 250.332,211.794 C231.001,202.274 226.22,207.228 221.762,208.205 C216.892,209.27 219.824,210.922 216.604,214.641 C208.293,224.248 201.194,236.056 203.776,246.941 C206.14,256.921 210.455,263.063 218.453,267.463 C226.717,272.007 244.765,272.267 253.651,268.26 C266.054,262.665 274.094,251.687 267.452,235.536" fill="#E5A98F" id="path147507"/>
    <path d="M267.452,235.536 C261.057,219.992 260.863,216.978 250.332,211.794 C231.001,202.274 226.22,207.228 221.762,208.205 C216.892,209.27 219.824,210.922 216.604,214.641 C208.293,224.248 201.194,236.056 203.776,246.941 C206.14,256.921 210.455,263.063 218.453,267.463 C226.717,272.007 244.765,272.267 253.651,268.26 C266.054,262.665 274.094,251.687 267.452,235.536 z" fill-opacity="0" stroke="#1A1919" stroke-width="2.126" stroke-linecap="round" stroke-linejoin="round" id="path147509"/>
    <path d="M181.129,198.64 C181.419,191.581 182.467,180.528 178.096,174.518 C174.742,169.906 170.246,167.645 164.978,166.324 C157.952,164.563 151.224,169.887 151.191,176.776 C151.149,185.393 157.847,194.848 164.021,200.549 C170.42,206.454 180.62,210.933 181.129,198.64" fill="#F3B9A2" id="path147511"/>
    <path d="M181.129,198.64 C181.419,191.581 182.467,180.528 178.096,174.518 C174.742,169.906 170.246,167.645 164.978,166.324 C157.952,164.563 151.224,169.887 151.191,176.776 C151.149,185.393 157.847,194.848 164.021,200.549 C170.42,206.454 180.62,210.933 181.129,198.64 z" fill-opacity="0" stroke="#1A1919" stroke-width="2.126" stroke-linecap="round" stroke-linejoin="round" id="path147513"/>
    <path d="M286.764,199.264 C286.472,192.21 285.425,181.152 289.796,175.142 C293.148,170.532 297.648,168.268 302.916,166.948 C309.943,165.186 316.416,170.375 316.451,177.263 C316.492,185.882 310.044,195.472 303.868,201.172 C297.474,207.078 287.272,211.559 286.764,199.264" fill="#F3B9A2" id="path147515"/>
    <path d="M286.764,199.264 C286.472,192.21 285.425,181.152 289.796,175.142 C293.148,170.532 297.648,168.268 302.916,166.948 C309.943,165.186 316.416,170.375 316.451,177.263 C316.492,185.882 310.044,195.472 303.868,201.172 C297.474,207.078 287.272,211.559 286.764,199.264 z" fill-opacity="0" stroke="#1A1919" stroke-width="2.126" stroke-linecap="round" stroke-linejoin="round" id="path147517"/>
    <path d="M290.246,200.07 C295.196,179.721 297.241,141.94 283.187,126.861 C270.327,113.061 239.478,93.425 219.836,100.569 C207.334,105.115 196.623,124.723 187.702,134.426 C166.501,157.493 171.769,195.954 186.025,216.867 C195.409,230.637 217.894,247.981 236.077,246.964 C253.182,246.008 283.754,226.756 290.246,200.07" fill="#F3B9A2" id="path147519"/>
    <path d="M290.246,200.07 C295.196,179.721 297.241,141.94 283.187,126.861 C270.327,113.061 239.478,93.425 219.836,100.569 C207.334,105.115 196.623,124.723 187.702,134.426 C166.501,157.493 171.769,195.954 186.025,216.867 C195.409,230.637 217.894,247.981 236.077,246.964 C253.182,246.008 283.754,226.756 290.246,200.07 z M197.652,164.665 C199.258,148.66 218.978,149.431 223.258,162.26 M242.452,162.26 C245.655,149.459 262.173,146.229 266.452,159.059" fill-opacity="0" stroke="#1A1919" stroke-width="2.126" stroke-linecap="round" stroke-linejoin="round" id="path147521"/>
    <path d="M211.368,171.885 C215.223,172.382 215.434,179.661 210.986,178.921 C208.623,178.529 207.51,171.383 211.368,171.885" fill="#1A1919" id="path147523"/>
    <path d="M254.357,171.26 C258.769,170.935 258.212,178.716 253.764,177.973 C251.401,177.579 250.478,171.547 254.357,171.26" fill="#1A1919" id="path147525"/>
    <path d="M233.054,191.061 C225.301,188.952 225.854,198.861 230.377,201.345" fill-opacity="0" stroke="#1A1919" stroke-width="2.126" stroke-linecap="round" stroke-linejoin="round" id="path147527"/>
    <path d="M257.219,205.625 C256.419,214.142 253.918,220.466 250.613,224.952 C240.552,223.763 232.452,223.763 218.954,225.908 C214.414,221.436 210.719,215.214 210.177,207.524 C218.954,217.157 246.256,218.661 257.219,205.625" fill="#CD6A5F" id="path147529"/>
    <path d="M257.219,205.625 C256.419,214.142 253.918,220.466 250.613,224.952 C240.552,223.763 232.452,223.763 218.954,225.908 C214.414,221.436 210.719,215.214 210.177,207.524 C218.954,217.157 246.256,218.661 257.219,205.625 z" fill-opacity="0" stroke="#1A1919" stroke-width="2.126" stroke-linecap="round" stroke-linejoin="round" id="path147531"/>
    <path d="M218.654,225.563 C224.359,218.966 242.785,219.41 251.054,224.663 C247.454,229.16 242.38,233.192 235.252,233.459 C229.081,233.684 224.054,230.961 218.654,225.563" fill="#E47272" id="path147533"/>
    <path d="M218.654,225.563 C224.359,218.966 242.785,219.41 251.054,224.663 C247.454,229.16 242.38,233.192 235.252,233.459 C229.081,233.684 224.054,230.961 218.654,225.563 z" fill-opacity="0" stroke="#1A1919" stroke-width="2.126" stroke-linecap="round" stroke-linejoin="round" id="path147535"/>
    <path d="M248.757,382.524 L341.267,380.319 L357.257,446.525 L255.092,447.48 L248.757,382.524" fill="#FFFFFE" id="path147537"/>
    <path d="M248.757,382.524 L341.267,380.319 L357.257,446.525 L255.092,447.48 z" fill-opacity="0" stroke="#1A1919" stroke-width="2.126" stroke-linecap="round" stroke-linejoin="round" id="path147539"/>
    <path d="M186.039,382.524 L173.837,446.995 L264.599,447.95 L260.795,382.215 L186.039,382.524" fill="#FFFFFE" id="path147541"/>
    <path d="M186.039,382.524 L173.837,446.995 L264.599,447.95 L260.795,382.215 z" fill-opacity="0" stroke="#1A1919" stroke-width="2.126" stroke-linecap="round" stroke-linejoin="round" id="path147543"/>
    <path d="M186.183,436.075 L249.39,437.015" fill="#FFFFFE" id="path147545"/>
    <path d="M186.183,436.075 L249.39,437.015" fill-opacity="0" stroke="#1A1919" stroke-width="2.126" stroke-linecap="round" stroke-linejoin="round" id="path147547"/>
    <path d="M192.371,392.824 L249.39,392.032" fill="#F0AC84" id="path147549"/>
    <path d="M192.371,392.824 L249.39,392.032" fill-opacity="0" stroke="#1A1919" stroke-width="2.126" stroke-linecap="round" stroke-linejoin="round" id="path147551"/>
    <path d="M191.415,401.38 L250.416,404.056" fill="#F0AC84" id="path147553"/>
    <path d="M191.415,401.38 L250.416,404.056" fill-opacity="0" stroke="#1A1919" stroke-width="2.126" stroke-linecap="round" stroke-linejoin="round" id="path147555"/>
    <path d="M189.034,412.782 L251.418,415.058" fill="#F0AC84" id="path147557"/>
    <path d="M189.034,412.782 L251.418,415.058" fill-opacity="0" stroke="#1A1919" stroke-width="2.126" stroke-linecap="round" stroke-linejoin="round" id="path147559"/>
    <path d="M188.565,423.716 L248.436,425.614" fill="#F0AC84" id="path147561"/>
    <path d="M188.565,423.716 L248.436,425.614" fill-opacity="0" stroke="#1A1919" stroke-width="2.126" stroke-linecap="round" stroke-linejoin="round" id="path147563"/>
    <path d="M278.023,436.635 L343.957,436.075" fill="#FFFFFE" id="path147565"/>
    <path d="M278.023,436.635 L343.957,436.075" fill-opacity="0" stroke="#1A1919" stroke-width="2.126" stroke-linecap="round" stroke-linejoin="round" id="path147567"/>
    <path d="M277.308,394.213 L335.282,392.825" fill="#F0AC84" id="path147569"/>
    <path d="M277.308,394.213 L335.282,392.825" fill-opacity="0" stroke="#1A1919" stroke-width="2.126" stroke-linecap="round" stroke-linejoin="round" id="path147571"/>
    <path d="M277.764,403.719 L335.257,402.359" fill="#F0AC84" id="path147573"/>
    <path d="M277.764,403.719 L335.257,402.359" fill-opacity="0" stroke="#1A1919" stroke-width="2.126" stroke-linecap="round" stroke-linejoin="round" id="path147575"/>
    <path d="M277.431,415.163 L337.772,413.736" fill="#F0AC84" id="path147577"/>
    <path d="M277.431,415.163 L337.772,413.736" fill-opacity="0" stroke="#1A1919" stroke-width="2.126" stroke-linecap="round" stroke-linejoin="round" id="path147579"/>
    <path d="M278.855,425.6 L338.747,424.593" fill="#F0AC84" id="path147581"/>
    <path d="M278.855,425.6 L338.747,424.593" fill-opacity="0" stroke="#1A1919" stroke-width="2.126" stroke-linecap="round" stroke-linejoin="round" id="path147583"/>
    <path d="M335.482,385.958 C328.442,372.364 320.362,375.045 307.836,375.72 C299.767,386.169 321.62,408.507 334.922,405.186 C341.982,403.424 338.457,391.704 335.482,385.958" fill="#6C7A97" id="path147585"/>
    <path d="M335.482,385.958 C328.442,372.364 320.362,375.045 307.836,375.72 C299.767,386.169 321.62,408.507 334.922,405.186 C341.982,403.424 338.457,391.704 335.482,385.958 z" fill-opacity="0" stroke="#1A1919" stroke-width="2.126" stroke-linecap="round" stroke-linejoin="round" id="path147587"/>
    <path d="M304.515,385.698 C296.459,386.155 288.901,383.553 280.44,384.434 C272.652,385.248 266.655,389.258 259.37,392.825 C254.357,395.291 240.957,404.8 250.656,406.611 C260.795,408.507 266.656,398.206 272.83,399.632 C267.127,405.348 256.018,415.916 252.711,421.337 C249.913,425.93 247.332,431.801 246.863,435.12 C246.39,438.445 249.531,443.135 253.196,440.19 C256.355,437.65 257.931,432.179 262.22,427.522 C266.256,423.135 272.521,415.848 274.741,415.473 C272.31,422.124 266.373,427.675 263.644,433.696 C261.099,439.305 256.208,450.01 261.426,452.86 C266.644,455.71 270.273,447.045 274.577,436.545 C277.229,430.072 282.338,426.875 286.454,423.716 C284.912,429.088 281.69,433.424 279.324,439.87 C275.284,450.88 273.944,456.375 277.431,457.93 C280.838,459.45 286.58,455.55 289.787,445.1 C293.316,438.985 295.144,433.201 300.709,430.845 C298.426,439.83 290.26,457.455 297.388,456.03 C305.664,454.375 309.139,444.055 312.113,436.385 C313.853,431.891 317.406,424.757 319.724,419.909 C322.525,414.059 319.976,406.925 322.887,402.172 C330.012,394.573 343.937,387.941 343.957,384.275 C343.992,377.788 334.297,374.391 330.172,370.489 C322.63,375.823 314.492,379.995 304.515,385.698" fill="#F3B9A2" id="path147589"/>
    <path d="M304.515,385.698 C296.459,386.155 288.901,383.553 280.44,384.434 C272.652,385.248 266.655,389.258 259.37,392.825 C254.357,395.291 240.957,404.8 250.656,406.611 C260.795,408.507 266.656,398.206 272.83,399.632 C267.127,405.348 256.018,415.916 252.711,421.337 C249.913,425.93 247.332,431.801 246.863,435.12 C246.39,438.445 249.531,443.135 253.196,440.19 C256.355,437.65 257.931,432.179 262.22,427.522 C266.256,423.135 272.521,415.848 274.741,415.473 C272.31,422.124 266.373,427.675 263.644,433.696 C261.099,439.305 256.208,450.01 261.426,452.86 C266.644,455.71 270.273,447.045 274.577,436.545 C277.229,430.072 282.338,426.875 286.454,423.716 C284.912,429.088 281.69,433.424 279.324,439.87 C275.284,450.88 273.944,456.375 277.431,457.93 C280.838,459.45 286.58,455.55 289.787,445.1 C293.316,438.985 295.144,433.201 300.709,430.845 C298.426,439.83 290.26,457.455 297.388,456.03 C305.664,454.375 309.139,444.055 312.113,436.385 C313.853,431.891 317.406,424.757 319.724,419.909 C322.525,414.059 319.976,406.925 322.887,402.172 C330.012,394.573 343.937,387.941 343.957,384.275 C343.992,377.788 334.297,374.391 330.172,370.489 C322.63,375.823 314.492,379.995 304.515,385.698 z" fill-opacity="0" stroke="#1A1919" stroke-width="2.126" stroke-linecap="round" stroke-linejoin="round" id="path147591"/>
    <path d="M342.852,351.256 C335.992,358.651 327.252,362.065 307.366,376.191 C332.067,375.72 334.447,394.723 336.832,404.703 C349.662,398.527 346.172,401.304 357.742,393.298 C367.737,386.377 369.472,385.24 376.747,375.72 C382.917,367.639 380.352,358.423 374.652,342.256" fill="#7A8BAD" id="path147593"/>
    <path d="M342.852,351.256 C335.992,358.651 327.252,362.065 307.366,376.191 C332.067,375.72 334.447,394.723 336.832,404.703 C349.662,398.527 346.172,401.304 357.742,393.298 C367.737,386.377 369.472,385.24 376.747,375.72 C382.917,367.639 380.352,358.423 374.652,342.256" fill-opacity="0" stroke="#1A1919" stroke-width="2.126" stroke-linecap="round" stroke-linejoin="round" id="path147595"/>
    <path d="M326.057,459.835 L307.041,468.07 L330.492,470.595 L424.267,455.075 L423.637,446.535 L326.057,459.835" fill="#DAA275" id="path147597"/>
    <path d="M325.657,451.59 L302.364,460.39 L326.607,462.53 L340.152,454.445 L325.657,451.59" fill="#F3CCA6" id="path147599"/>
    <path d="M325.657,451.59 L302.364,460.39 L326.607,462.53 L340.152,454.445 z" fill-opacity="0" stroke="#1A1919" stroke-width="2.126" stroke-linecap="round" stroke-linejoin="round" id="path147601"/>
    <path d="M329.702,458.965 L326.852,456.825 L329.232,454.445 L327.092,450.88 L421.407,439.48 L423.782,448.03 L327.562,462.285 L329.702,458.965" fill="#6E8073" id="path147603"/>
    <path d="M329.702,458.965 L326.852,456.825 L329.232,454.445 L327.092,450.88 L421.407,439.48 L423.782,448.03 L327.562,462.285 z" fill-opacity="0" stroke="#1A1919" stroke-width="2.126" stroke-linecap="round" stroke-linejoin="round" id="path147605"/>
    <path d="M313.548,456.825 L313.777,460.86 L307.135,459.435 L313.548,456.825" fill="#1A1919" id="path147607"/>
    <path d="M73.555,467.435 L143.256,468.07 L221.82,471.24 L204.083,426.889 L108.402,424.995 L73.555,467.435" fill="#DAA275" id="path147609"/>
    <path d="M77.058,462.48 C74.515,459.28 75.47,455.435 75.47,455.435 C75.47,455.435 94.023,411.678 97.846,404.966 C112.67,397.498 151.483,399.322 158.157,410.885 C172.414,395.675 216.23,406.981 226.583,417.542 C226.583,423.246 225.627,464.585 223.73,471.23 C196.647,452.225 163.196,451.85 158.263,456.165 C151.304,462.265 145.314,466.01 145.314,466.01 C145.314,466.01 136.22,459.28 132.09,457.075 C127.961,454.87 95.907,437.5 77.058,462.48" fill="#FFFFFE" id="path147611"/>
    <path d="M77.058,462.48 C74.515,459.28 75.47,455.435 75.47,455.435 C75.47,455.435 94.023,411.678 97.846,404.966 C112.67,397.498 151.483,399.322 158.157,410.885 C172.414,395.675 216.23,406.981 226.583,417.542 C226.583,423.246 225.627,464.585 223.73,471.23 C196.647,452.225 163.196,451.85 158.263,456.165 C151.304,462.265 145.314,466.01 145.314,466.01 C145.314,466.01 136.22,459.28 132.09,457.075 C127.961,454.87 95.907,437.5 77.058,462.48 z" fill-opacity="0" stroke="#1A1919" stroke-width="2.126" stroke-linecap="round" stroke-linejoin="round" id="path147613"/>
    <path d="M157.084,411.579 L143.889,465.53" fill="#7A8BAD" id="path147615"/>
    <path d="M157.084,411.579 L143.889,465.53" fill-opacity="0" stroke="#1A1919" stroke-width="2.126" stroke-linecap="round" stroke-linejoin="round" id="path147617"/>
    <path d="M75.47,455.435 C75.47,455.435 73.559,463.02 73.431,468.245 C98.858,444.74 125.265,457.94 129.385,460.665 C134.483,464.04 132.821,461.725 138.587,468.74 L150.095,469.025 C150.095,469.025 153.362,463.95 157.599,461.375 C165.038,456.855 193.271,454.73 214.224,474.08 C218.982,473.14 220.939,474.32 224.687,470.76 C206.256,455.14 166.601,436.505 144.5,462.61 C142.847,445.315 96.385,434.525 75.47,455.435" fill="#CBCCCB" id="path147619"/>
    <path d="M75.47,455.435 C75.47,455.435 73.559,463.02 73.431,468.245 C98.858,444.74 125.265,457.94 129.385,460.665 C134.483,464.04 132.821,461.725 138.587,468.74 L150.095,469.025 C150.095,469.025 153.362,463.95 157.599,461.375 C165.038,456.855 193.271,454.73 214.224,474.08 C218.982,473.14 220.939,474.32 224.687,470.76 C206.256,455.14 166.601,436.505 144.5,462.61 C142.847,445.315 96.385,434.525 75.47,455.435 z M88.449,440.355 C97.599,431.386 132.277,429.865 142.097,445.65 M93.294,430.897 C105.244,421.26 139.386,421.794 144.845,433.696 M97.194,421.442 C105.824,413.919 135.821,410.885 147.223,423.716 M161.949,422.291 C178.248,414.926 205.199,418.013 218.982,430.372 M164.33,414.678 C184.285,404.703 207.807,414.101 219.455,421.817 M100.773,412.92 C109.923,403.953 143.889,405.655 149.605,416.103" fill-opacity="0" stroke="#1A1919" stroke-width="2.126" stroke-linecap="round" stroke-linejoin="round" id="path147621"/>
    <path d="M160.525,430.845 C158.389,435.69 155.514,444.13 154.787,447.61 C172.346,434.55 199.487,441.29 217.075,454.125 C218.5,447.465 217.557,446.055 218.031,439.87 C206.972,430.006 178.515,422.905 160.525,430.845" fill="#E4E4E3" id="path147623"/>
    <path d="M160.525,430.845 C158.389,435.69 155.514,444.13 154.787,447.61 C172.346,434.55 199.487,441.29 217.075,454.125 C218.5,447.465 217.557,446.055 218.031,439.87 C206.972,430.006 178.515,422.905 160.525,430.845 z" fill-opacity="0" stroke="#1A1919" stroke-width="2.126" stroke-linecap="round" stroke-linejoin="round" id="path147625"/>
    <path d="M365.342,411.045 L358.052,415.796 L393.217,434.795 L416.657,418.969 L390.057,409.461 L365.342,411.045" fill="#DAA275" id="path147627"/>
    <path d="M375.477,412.311 L365.662,401.848 L380.547,393.62 L410.647,405.024 L395.747,419.909 L375.477,412.311" fill="#FFFFFE" id="path147629"/>
    <path d="M375.477,412.311 L365.662,401.848 L380.547,393.62 L410.647,405.024 L395.747,419.909 z" fill-opacity="0" stroke="#1A1919" stroke-width="2.126" stroke-linecap="round" stroke-linejoin="round" id="path147631"/>
    <path d="M392.587,418.013 L410.647,405.655 L409.692,415.472 L395.117,426.875 L392.587,418.013" fill="#FFFFFE" id="path147633"/>
    <path d="M392.587,418.013 L410.647,405.655 L409.692,415.472 L395.117,426.875 z" fill-opacity="0" stroke="#1A1919" stroke-width="2.126" stroke-linecap="round" stroke-linejoin="round" id="path147635"/>
    <path d="M365.652,401.848 L364.692,410.726 L395.102,426.551 L396.362,415.78 L365.652,401.848" fill="#FFFFFE" id="path147637"/>
    <path d="M365.652,401.848 L364.692,410.726 L395.102,426.551 L396.362,415.78 z" fill-opacity="0" stroke="#1A1919" stroke-width="2.126" stroke-linecap="round" stroke-linejoin="round" id="path147639"/>
    <path d="M375.477,412.311 L365.662,401.848 L380.547,393.619 L400.507,400.91 L384.032,412.311 L375.477,412.311" fill="#E46E6E" id="path147641"/>
    <path d="M375.477,412.311 L365.662,401.848 L380.547,393.619 L400.507,400.91 L384.032,412.311 z" fill-opacity="0" stroke="#1A1919" stroke-width="2.126" stroke-linecap="round" stroke-linejoin="round" id="path147643"/>
    <path d="M365.662,402.172 L364.707,411.046 L385.622,422.127 L386.562,411.046 L365.662,402.172" fill="#C56161" id="path147645"/>
    <path d="M365.662,402.172 L364.707,411.046 L385.622,422.127 L386.562,411.046 z" fill-opacity="0" stroke="#1A1919" stroke-width="2.126" stroke-linecap="round" stroke-linejoin="round" id="path147647"/>
    <path d="M475.587,494.99 L30.803,494.99 L29.851,480.735 L476.532,480.735 L475.587,494.99" fill="#DAA275" id="path147649"/>
    <path d="M475.587,494.99 L30.803,494.99 L29.851,480.735 L476.532,480.735 z" fill-opacity="0" stroke="#1A1919" stroke-width="2.126" stroke-linecap="round" stroke-linejoin="round" id="path147651"/>
    <path d="M271.66,164.914 C264.053,153.457 258.61,124.667 256.056,110.26 C246.207,130.699 239.251,143.863 219.428,151.358 C221.608,141.647 221.729,131.29 223.213,121.391 C217.079,138.697 204.85,151.862 192.364,164.815 C191.972,161.178 188.233,152.815 187.794,152.75 C183.334,164.272 177.78,188.033 177.78,199.437 C171.47,192.765 162.531,169.076 160.998,160.479 C157.844,142.78 161.617,130.564 170.022,113.425 C181.909,89.178 211.691,78.87 237.034,79.212 C253.932,79.438 283.604,87.294 296.433,110.572 C306.428,128.707 306.289,136.897 304.987,157.625 C304.407,166.875 297.254,192.191 290.57,198.495 C292.466,186.621 281.301,155.483 279.127,148.854 C275.521,156.199 275.992,158.098 271.66,164.914" fill="#946451" id="path147653"/>
    <path d="M271.66,164.914 C264.053,153.457 258.61,124.667 256.056,110.26 C246.207,130.699 239.251,143.863 219.428,151.358 C221.608,141.647 221.729,131.29 223.213,121.391 C217.079,138.697 204.85,151.862 192.364,164.815 C191.972,161.178 188.233,152.815 187.794,152.75 C183.334,164.272 177.78,188.033 177.78,199.437 C171.47,192.765 162.531,169.076 160.998,160.479 C157.844,142.78 161.617,130.564 170.022,113.425 C181.909,89.178 211.691,78.87 237.034,79.212 C253.932,79.438 283.604,87.294 296.433,110.572 C306.428,128.707 306.289,136.897 304.987,157.625 C304.407,166.875 297.254,192.191 290.57,198.495 C292.466,186.621 281.301,155.483 279.127,148.854 C275.521,156.199 275.992,158.098 271.66,164.914 z" fill-opacity="0" stroke="#1A1919" stroke-width="2.126" stroke-linecap="round" stroke-linejoin="round" id="path147655"/>
  </g>
</svg>
